<svg id="svg" version="1.1" width="400" height="110.9582466805311" viewBox="0 0 400 110.9582466805311" xmlns="http://www.w3.org/2000/svg" xmlns:xlink="http://www.w3.org/1999/xlink" ><g id="svgg"><path id="path0" d="M312.444 17.278 C 312.232 17.490,312.317 25.750,312.533 25.967 C 312.869 26.302,320.398 26.245,320.738 25.905 C 321.079 25.564,321.136 17.702,320.800 17.367 C 320.583 17.150,312.657 17.066,312.444 17.278 M79.328 17.849 C 72.441 18.516,63.825 23.244,59.802 28.564 C 56.458 32.985,55.133 39.986,54.418 57.000 C 53.652 75.226,52.148 79.394,44.204 85.303 C 40.345 88.173,37.826 88.958,31.351 89.310 C 28.467 89.466,28.167 89.648,28.167 91.237 C 28.167 93.083,28.466 93.186,33.243 92.988 C 46.710 92.429,53.620 90.817,58.583 87.077 C 67.913 80.046,70.032 73.569,69.758 52.917 C 69.620 42.572,69.859 40.496,71.850 34.721 C 74.429 27.243,79.388 23.476,87.218 23.048 C 89.651 22.914,90.380 22.270,90.001 20.587 C 89.793 19.664,89.616 19.550,87.146 18.755 C 83.947 17.725,82.430 17.549,79.328 17.849 M357.111 19.278 C 357.050 19.339,357.000 21.474,357.000 24.022 L 357.000 28.655 355.292 28.703 L 353.583 28.750 353.583 32.333 L 353.583 35.917 355.283 35.964 L 356.983 36.011 357.040 46.131 C 357.091 55.174,357.128 56.356,357.389 57.250 C 358.629 61.498,360.953 62.730,367.750 62.743 L 371.250 62.750 371.250 59.167 L 371.250 55.583 369.076 55.500 C 365.166 55.350,365.428 56.094,365.369 44.970 L 365.322 36.008 368.286 35.962 L 371.250 35.917 371.250 32.333 L 371.250 28.750 368.292 28.704 L 365.333 28.659 365.333 24.176 C 365.333 21.711,365.288 19.575,365.232 19.430 C 365.127 19.156,357.379 19.010,357.111 19.278 M75.223 23.076 C 68.528 27.585,65.442 37.613,65.994 53.072 C 66.550 68.663,64.593 76.572,58.886 81.802 C 55.198 85.183,50.859 87.500,48.219 87.500 C 48.079 87.500,48.867 86.635,49.970 85.578 C 55.978 79.822,57.464 74.771,58.083 58.000 C 58.570 44.830,59.810 36.488,61.851 32.658 C 63.759 29.079,68.387 25.430,73.809 23.231 C 75.964 22.357,76.355 22.314,75.223 23.076 M246.079 28.488 C 240.685 29.345,238.141 32.413,238.123 38.083 C 238.106 43.463,240.106 45.970,246.572 48.672 C 251.556 50.755,252.500 51.525,252.500 53.511 C 252.500 55.255,251.421 56.065,249.083 56.075 C 247.004 56.085,246.045 55.323,245.672 53.365 C 245.311 51.473,245.286 51.421,244.711 51.365 C 244.272 51.322,239.254 51.992,238.060 52.252 C 236.712 52.547,238.237 58.361,240.209 60.446 C 243.706 64.143,254.329 64.135,258.032 60.432 C 262.112 56.352,260.962 47.002,256.072 44.500 C 255.803 44.363,255.546 44.204,255.500 44.147 C 255.335 43.943,253.663 43.163,251.265 42.173 C 247.058 40.435,246.081 39.596,246.145 37.778 C 246.197 36.310,246.791 35.649,248.358 35.313 C 250.719 34.806,252.114 35.994,252.443 38.790 C 252.582 39.972,252.436 39.951,256.516 39.350 C 260.722 38.731,260.402 38.888,260.274 37.511 C 259.830 32.736,257.806 29.934,253.999 28.827 C 252.629 28.429,247.765 28.220,246.079 28.488 M276.047 28.575 C 274.905 28.834,273.450 29.505,272.885 30.032 L 272.520 30.373 272.468 29.561 L 272.417 28.750 268.333 28.750 L 264.250 28.750 264.250 51.250 L 264.250 73.750 268.333 73.750 L 272.417 73.750 272.460 67.518 C 272.502 61.612,272.519 61.299,272.794 61.546 C 275.624 64.095,283.954 63.584,286.512 60.705 C 288.625 58.326,288.750 57.479,288.750 45.583 C 288.750 33.747,288.650 33.043,286.648 30.768 C 284.845 28.720,279.904 27.698,276.047 28.575 M305.234 28.578 C 304.089 28.830,302.800 29.436,302.033 30.081 L 301.518 30.515 301.467 29.632 L 301.417 28.750 297.372 28.705 L 293.327 28.661 293.164 29.091 C 293.061 29.362,293.000 35.533,293.000 45.750 C 293.000 55.967,293.061 62.138,293.164 62.409 L 293.327 62.839 297.372 62.795 L 301.417 62.750 301.500 50.833 C 301.547 44.063,301.650 38.773,301.738 38.583 C 302.710 36.485,303.880 35.880,307.333 35.689 L 309.250 35.583 309.250 32.000 L 309.250 28.417 307.750 28.385 C 306.925 28.368,305.793 28.455,305.234 28.578 M338.500 28.438 C 337.397 28.650,335.909 29.255,335.241 29.765 L 334.500 30.331 334.500 29.699 C 334.500 29.351,334.410 28.977,334.300 28.867 C 334.016 28.583,326.484 28.583,326.200 28.867 C 325.910 29.157,325.910 62.343,326.200 62.633 C 326.587 63.020,334.116 62.907,334.327 62.511 C 334.442 62.298,334.500 58.248,334.500 50.532 C 334.500 38.033,334.491 38.183,335.344 36.985 C 336.546 35.297,340.336 35.237,341.566 36.887 C 341.913 37.353,341.917 37.474,342.000 49.921 C 342.057 58.507,342.140 62.540,342.261 62.662 C 342.380 62.780,343.739 62.825,346.345 62.795 L 350.250 62.750 350.295 49.250 C 350.353 32.131,350.287 31.678,347.443 29.725 C 345.869 28.644,341.047 27.950,338.500 28.438 M381.972 28.494 C 376.565 29.475,374.126 32.418,374.095 38.000 C 374.064 43.517,376.066 45.992,382.821 48.793 C 387.472 50.721,388.500 51.556,388.500 53.408 C 388.500 55.150,387.397 56.057,385.256 56.074 C 382.637 56.095,382.083 55.525,381.376 52.083 C 381.197 51.210,380.991 51.193,377.300 51.744 C 373.643 52.290,373.708 52.274,373.588 52.653 C 373.462 53.050,373.915 55.963,374.277 57.083 C 375.703 61.496,378.514 63.063,385.000 63.063 C 393.299 63.063,396.874 59.736,396.440 52.417 C 396.136 47.290,394.080 44.975,387.394 42.233 C 383.644 40.695,382.546 39.917,382.178 38.534 C 381.596 36.353,383.628 34.724,386.168 35.334 C 387.518 35.658,388.500 37.340,388.500 39.330 C 388.500 39.893,388.825 39.894,392.536 39.348 C 396.724 38.731,396.448 38.910,396.189 36.968 C 395.572 32.334,393.616 29.837,389.750 28.750 C 388.608 28.428,383.296 28.254,381.972 28.494 M312.507 28.986 C 312.276 29.419,312.264 61.797,312.496 62.406 L 312.658 62.833 316.538 62.831 C 318.671 62.829,320.511 62.768,320.626 62.695 C 320.792 62.590,320.826 59.071,320.792 45.656 L 320.750 28.750 316.716 28.705 C 312.861 28.663,312.674 28.675,312.507 28.986 M278.970 36.034 C 280.435 36.770,280.409 36.607,280.465 45.375 C 280.498 50.654,280.455 53.215,280.325 53.699 C 279.519 56.692,273.751 56.601,272.836 53.580 C 272.250 51.646,272.465 38.520,273.104 37.234 C 273.911 35.609,276.904 34.996,278.970 36.034 " stroke="none" fill="#a42c04" fill-rule="evenodd"></path><path id="path1" d="M152.632 15.124 C 153.208 15.156,154.108 15.156,154.632 15.123 C 155.155 15.090,154.683 15.063,153.583 15.064 C 152.483 15.064,152.055 15.091,152.632 15.124 M178.458 63.456 C 178.940 63.490,179.727 63.490,180.208 63.456 C 180.690 63.423,180.296 63.395,179.333 63.395 C 178.371 63.395,177.977 63.423,178.458 63.456 M222.292 63.456 C 222.773 63.490,223.560 63.490,224.042 63.456 C 224.523 63.423,224.129 63.395,223.167 63.395 C 222.204 63.395,221.810 63.423,222.292 63.456 M243.409 84.409 C 242.838 84.980,242.825 86.278,243.386 86.804 C 243.945 87.330,245.301 87.317,245.804 86.781 C 247.238 85.255,244.889 82.929,243.409 84.409 M299.038 84.112 C 298.700 84.248,298.333 85.099,298.333 85.749 C 298.333 87.338,300.887 87.814,301.498 86.339 C 302.119 84.839,300.614 83.477,299.038 84.112 M321.242 84.409 C 320.706 84.946,320.675 86.087,321.179 86.728 C 321.659 87.338,323.086 87.369,323.638 86.781 C 325.079 85.246,322.731 82.921,321.242 84.409 M315.916 85.225 C 314.877 85.524,314.833 85.586,314.833 86.760 L 314.833 87.833 314.101 87.833 C 313.280 87.833,313.167 87.975,313.167 89.000 C 313.167 89.970,313.291 90.140,314.089 90.260 L 314.815 90.368 314.866 93.756 C 314.933 98.212,315.283 98.752,318.102 98.748 C 319.701 98.745,320.000 98.573,320.000 97.657 C 320.000 96.450,319.783 96.167,318.858 96.167 C 317.639 96.167,317.593 96.057,317.527 92.999 L 317.472 90.381 318.601 90.291 C 319.877 90.188,320.167 89.957,320.167 89.041 C 320.167 87.997,319.962 87.833,318.661 87.833 L 317.500 87.833 317.500 86.518 C 317.500 84.899,317.383 84.803,315.916 85.225 M209.791 87.904 C 205.574 89.410,205.504 96.926,209.693 98.431 C 211.275 98.999,214.773 98.799,215.472 98.100 C 216.049 97.522,215.323 95.698,214.600 95.910 C 211.835 96.723,210.013 96.189,209.574 94.438 L 209.466 94.007 212.774 93.962 L 216.083 93.917 216.132 92.607 C 216.272 88.878,213.280 86.659,209.791 87.904 M224.203 87.876 C 222.219 88.512,220.869 91.041,221.036 93.808 C 221.265 97.590,224.146 99.490,228.310 98.604 C 229.947 98.256,230.062 98.146,229.946 97.023 C 229.816 95.767,229.721 95.712,228.327 96.073 C 226.053 96.663,224.396 96.024,223.919 94.375 L 223.811 94.000 227.039 94.000 C 230.702 94.000,230.667 94.012,230.667 92.752 C 230.667 88.945,227.745 86.741,224.203 87.876 M235.124 88.055 C 234.392 88.425,234.353 88.428,234.276 88.130 C 234.204 87.855,234.050 87.824,232.972 87.867 L 231.750 87.917 231.812 93.083 C 231.883 99.102,231.734 98.500,233.156 98.500 C 234.688 98.500,234.638 98.622,234.698 94.689 L 234.750 91.305 235.290 90.823 C 236.285 89.935,237.308 90.022,237.924 91.049 C 238.203 91.515,238.255 92.022,238.330 95.000 L 238.417 98.417 239.750 98.417 L 241.083 98.417 241.083 94.583 C 241.083 90.362,241.004 89.895,240.109 88.876 C 239.013 87.628,236.714 87.249,235.124 88.055 M250.666 87.818 C 246.258 89.209,245.824 96.478,250.037 98.345 C 254.912 100.505,259.532 95.240,257.109 90.287 C 256.086 88.196,253.096 87.050,250.666 87.818 M273.910 87.983 C 272.600 88.572,271.882 89.893,272.059 91.387 C 272.222 92.770,272.889 93.397,275.376 94.509 C 277.523 95.470,275.892 96.877,273.654 95.995 C 272.556 95.562,272.257 95.665,272.006 96.564 C 271.595 98.029,271.935 98.392,274.020 98.715 C 279.432 99.553,281.383 94.220,276.494 91.953 C 275.052 91.284,274.682 90.944,274.944 90.528 C 275.265 90.015,275.944 89.902,276.824 90.214 C 278.277 90.730,278.564 90.549,278.787 88.973 C 278.950 87.824,275.719 87.169,273.910 87.983 M283.891 88.070 C 283.063 88.455,283.028 88.458,282.948 88.152 C 282.862 87.823,280.626 87.650,280.447 87.958 C 280.408 88.027,280.422 91.308,280.479 95.250 L 280.583 102.417 281.746 102.467 C 283.288 102.533,283.333 102.465,283.333 100.047 L 283.333 98.158 283.875 98.447 C 284.674 98.873,286.843 98.845,287.835 98.395 C 291.566 96.703,291.741 89.761,288.095 88.063 C 286.902 87.508,285.091 87.511,283.891 88.070 M295.137 87.993 C 294.601 88.280,294.504 88.289,294.321 88.069 C 294.167 87.883,293.834 87.832,293.015 87.868 L 291.917 87.917 291.873 92.881 C 291.820 98.813,291.744 98.532,293.385 98.465 L 294.583 98.417 294.683 95.250 C 294.813 91.142,295.066 90.561,296.811 90.370 C 297.787 90.263,298.204 89.159,297.732 87.930 C 297.580 87.534,295.918 87.574,295.137 87.993 M306.750 87.977 C 305.906 88.360,305.750 88.383,305.750 88.125 C 305.750 87.977,305.389 87.917,304.500 87.917 L 303.250 87.917 303.206 92.980 C 303.155 98.825,303.068 98.500,304.677 98.500 C 306.094 98.500,305.983 98.787,306.007 95.075 C 306.029 91.740,306.090 91.437,306.877 90.702 C 307.764 89.873,309.059 90.171,309.543 91.314 C 309.645 91.554,309.770 93.245,309.822 95.083 L 309.917 98.417 311.057 98.466 C 312.783 98.541,312.711 98.728,312.622 94.425 C 312.540 90.439,312.444 89.912,311.611 88.902 C 310.622 87.703,308.319 87.264,306.750 87.977 M329.448 87.828 C 329.190 87.910,328.870 88.067,328.736 88.178 C 328.543 88.338,328.430 88.322,328.183 88.098 C 327.944 87.882,327.624 87.828,326.811 87.867 L 325.750 87.917 325.750 93.167 L 325.750 98.417 327.083 98.417 L 328.417 98.417 328.502 95.083 C 328.605 91.058,328.971 90.167,330.524 90.167 C 331.873 90.167,332.166 91.006,332.169 94.867 C 332.172 98.707,332.098 98.530,333.681 98.466 L 334.917 98.417 334.917 94.333 C 334.917 89.656,334.821 89.283,333.361 88.257 C 332.583 87.711,330.528 87.486,329.448 87.828 M339.375 87.874 C 339.077 87.970,338.833 88.112,338.833 88.191 C 338.833 88.269,338.736 88.333,338.618 88.333 C 337.507 88.333,336.265 90.879,336.260 93.167 C 336.251 97.230,339.460 99.683,342.802 98.167 L 343.520 97.841 343.409 98.212 C 342.850 100.083,341.257 100.671,338.953 99.856 C 337.754 99.431,337.583 99.496,337.246 100.511 C 336.728 102.070,337.418 102.519,340.500 102.628 C 345.479 102.805,346.250 101.548,346.250 93.250 L 346.250 87.917 345.151 87.868 C 344.357 87.833,343.998 87.885,343.856 88.056 C 343.687 88.260,343.571 88.249,343.044 87.980 C 342.353 87.628,340.327 87.569,339.375 87.874 M191.778 87.944 C 191.543 88.179,191.710 88.880,193.098 93.493 C 194.657 98.674,194.653 98.667,195.917 98.667 C 197.120 98.667,197.195 98.562,198.187 95.542 C 198.676 94.052,199.120 92.833,199.174 92.833 C 199.228 92.833,199.663 94.069,200.141 95.580 C 201.091 98.587,201.150 98.667,202.387 98.667 C 203.594 98.667,203.658 98.549,205.327 93.337 C 207.159 87.612,207.154 87.917,205.417 87.917 L 204.083 87.917 203.258 90.792 C 202.804 92.373,202.391 93.666,202.341 93.664 C 202.265 93.662,201.352 90.961,201.241 90.412 C 201.133 89.871,200.579 88.218,200.448 88.042 C 200.352 87.914,199.890 87.833,199.250 87.833 C 197.954 87.833,198.074 87.659,196.999 91.083 C 196.510 92.642,196.096 93.936,196.080 93.961 C 196.064 93.985,195.727 92.747,195.332 91.211 C 194.393 87.561,194.572 87.833,193.105 87.833 C 192.436 87.833,191.839 87.883,191.778 87.944 M243.252 88.035 C 243.211 88.153,243.156 90.612,243.130 93.500 C 243.078 99.354,243.035 99.592,241.966 99.992 C 240.596 100.504,240.667 100.432,240.667 101.316 C 240.667 102.591,240.732 102.667,241.821 102.667 C 242.990 102.667,244.343 102.034,245.027 101.167 C 245.899 100.062,246.009 99.124,245.961 93.237 L 245.917 87.917 244.622 87.868 C 243.679 87.832,243.308 87.878,243.252 88.035 M257.617 87.938 C 257.355 88.201,257.594 88.944,259.324 93.250 C 261.040 97.519,261.120 97.773,260.896 98.206 C 260.497 98.979,259.714 99.762,258.921 100.182 C 258.025 100.656,257.914 100.912,258.187 101.868 C 258.559 103.168,258.995 103.302,260.464 102.570 C 262.396 101.607,263.419 99.841,266.081 92.875 C 268.037 87.756,268.034 87.917,266.181 87.917 L 264.778 87.917 263.751 90.996 L 262.725 94.076 262.284 92.913 C 262.042 92.273,261.523 90.888,261.130 89.833 L 260.416 87.917 259.076 87.869 C 258.338 87.842,257.682 87.874,257.617 87.938 M298.706 88.027 C 298.385 88.349,298.412 98.052,298.735 98.321 C 298.879 98.440,299.413 98.497,300.110 98.466 L 301.250 98.417 301.250 93.167 L 301.250 87.917 300.081 87.869 C 299.316 87.837,298.842 87.892,298.706 88.027 M321.078 88.036 C 321.032 88.156,321.015 90.540,321.039 93.335 L 321.083 98.417 322.417 98.417 L 323.750 98.417 323.750 93.167 L 323.750 87.917 322.456 87.868 C 321.510 87.832,321.139 87.878,321.078 88.036 M212.767 90.567 C 213.744 91.544,213.603 91.667,211.500 91.667 C 210.492 91.667,209.667 91.622,209.667 91.567 C 209.667 90.258,211.777 89.577,212.767 90.567 M226.806 90.236 C 227.193 90.436,227.396 90.704,227.794 91.542 C 227.826 91.610,226.984 91.667,225.922 91.667 L 223.991 91.667 224.242 91.181 C 224.794 90.114,225.831 89.732,226.806 90.236 M253.272 90.272 C 255.179 91.177,255.263 94.859,253.403 96.008 C 252.164 96.774,250.694 96.034,250.205 94.397 C 249.417 91.760,251.241 89.308,253.272 90.272 M342.521 90.522 C 343.851 91.448,343.836 94.715,342.497 95.669 C 341.538 96.352,340.069 95.958,339.526 94.872 C 338.164 92.149,340.333 88.999,342.521 90.522 M286.602 90.484 C 288.487 91.633,288.118 95.495,286.059 96.175 C 283.531 97.009,282.129 92.464,284.340 90.603 C 284.970 90.073,285.852 90.027,286.602 90.484 M31.972 110.292 C 46.944 110.315,71.394 110.315,86.305 110.292 C 101.216 110.268,88.967 110.249,59.083 110.249 C 29.200 110.249,17.000 110.268,31.972 110.292 " stroke="none" fill="#9c9ca4" fill-rule="evenodd"></path><path id="path2" d="M4.500 0.678 C 4.500 0.774,4.425 0.807,4.333 0.750 C 4.222 0.681,4.167 18.946,4.167 55.417 C 4.167 91.887,4.222 110.152,4.333 110.083 C 4.425 110.027,4.500 110.041,4.500 110.115 C 4.500 110.189,29.063 110.250,59.083 110.250 C 89.104 110.250,113.667 110.189,113.667 110.115 C 113.667 110.041,113.741 110.027,113.833 110.083 C 113.943 110.151,113.999 91.785,113.999 55.444 C 113.999 5.785,113.975 0.693,113.737 0.601 C 113.243 0.412,4.500 0.488,4.500 0.678 M110.167 55.417 L 110.167 106.500 59.083 106.500 L 8.000 106.500 8.000 55.417 L 8.000 4.333 59.083 4.333 L 110.167 4.333 110.167 55.417 M151.214 15.256 C 151.083 15.352,150.991 15.502,151.008 15.590 C 151.208 16.608,150.964 31.344,150.750 31.167 C 150.612 31.053,150.499 31.025,150.497 31.105 C 150.496 31.185,150.440 31.166,150.372 31.064 C 150.223 30.837,148.833 30.117,148.833 30.267 C 148.833 30.326,148.740 30.297,148.625 30.203 C 147.689 29.432,140.998 29.574,140.021 30.385 C 139.890 30.494,139.737 30.565,139.683 30.544 C 139.491 30.467,139.000 30.691,139.000 30.854 C 139.000 30.945,138.930 30.976,138.844 30.923 C 138.270 30.569,136.001 33.818,135.764 35.333 C 135.714 35.654,135.618 36.104,135.552 36.333 C 135.318 37.141,135.341 56.141,135.577 57.435 C 135.799 58.648,136.598 60.667,136.856 60.667 C 136.935 60.667,137.000 60.744,137.000 60.840 C 137.000 61.121,138.497 62.492,139.192 62.846 C 139.545 63.026,139.833 63.125,139.833 63.066 C 139.833 63.007,139.946 63.053,140.083 63.167 C 140.221 63.281,140.333 63.318,140.333 63.250 C 140.333 63.182,140.428 63.204,140.543 63.300 C 141.475 64.073,147.792 63.846,149.352 62.983 C 149.571 62.862,149.806 62.778,149.875 62.798 C 149.944 62.817,150.000 62.758,150.000 62.667 C 150.000 62.575,150.112 62.500,150.250 62.500 C 150.387 62.500,150.500 62.425,150.500 62.333 C 150.500 62.242,150.612 62.167,150.750 62.167 C 150.970 62.167,151.086 62.478,151.017 62.884 C 150.915 63.486,155.299 63.833,155.937 63.273 C 156.223 63.021,156.271 15.418,155.985 15.241 C 155.683 15.054,151.472 15.068,151.214 15.256 M189.813 20.345 C 189.801 20.430,189.773 20.575,189.750 20.667 C 189.727 20.758,189.699 22.893,189.688 25.411 L 189.667 29.989 187.792 30.036 L 185.917 30.083 185.889 32.332 C 185.856 34.964,185.712 34.784,187.889 34.822 C 188.815 34.838,189.589 34.867,189.608 34.886 C 189.628 34.906,189.674 39.758,189.710 45.669 C 189.747 51.580,189.827 56.623,189.888 56.875 C 189.950 57.127,190.041 57.540,190.092 57.792 C 190.215 58.401,190.302 58.750,190.333 58.750 C 190.347 58.750,190.392 58.938,190.434 59.167 C 190.476 59.396,190.583 59.608,190.673 59.639 C 190.762 59.670,190.793 59.764,190.741 59.848 C 190.689 59.931,190.726 60.000,190.823 60.000 C 190.921 60.000,191.000 60.109,191.000 60.243 C 191.000 60.557,192.990 62.526,193.185 62.405 C 193.267 62.355,193.333 62.398,193.333 62.500 C 193.333 62.602,193.402 62.644,193.486 62.592 C 193.570 62.540,193.663 62.571,193.694 62.661 C 193.725 62.750,193.900 62.847,194.083 62.875 C 194.267 62.903,194.494 62.975,194.588 63.033 C 194.932 63.249,197.472 63.475,199.631 63.482 L 201.845 63.490 202.019 63.037 C 202.231 62.481,202.148 59.080,201.916 58.849 C 201.822 58.755,200.704 58.671,199.374 58.658 C 198.068 58.645,196.957 58.565,196.905 58.481 C 196.853 58.397,196.745 58.368,196.665 58.418 C 196.394 58.585,195.303 57.202,195.020 56.333 C 194.975 56.196,194.912 51.302,194.879 45.458 L 194.819 34.833 198.035 34.821 C 201.294 34.808,201.777 34.778,201.974 34.582 C 202.164 34.392,202.201 30.939,202.017 30.458 L 201.842 30.000 198.340 30.000 L 194.838 30.000 194.794 25.125 L 194.750 20.250 192.292 20.220 C 190.882 20.203,189.824 20.257,189.813 20.345 M169.583 29.842 C 168.285 30.085,167.924 30.189,167.688 30.385 C 167.556 30.494,167.442 30.554,167.433 30.517 C 167.399 30.376,166.667 30.698,166.667 30.854 C 166.667 30.945,166.591 30.973,166.499 30.916 C 166.407 30.859,166.286 30.929,166.231 31.073 C 166.176 31.216,166.054 31.333,165.960 31.333 C 165.639 31.333,164.040 33.246,164.125 33.528 C 164.148 33.604,164.087 33.667,163.990 33.667 C 163.893 33.667,163.860 33.742,163.917 33.833 C 163.973 33.925,163.954 34.000,163.874 34.000 C 163.677 34.000,163.015 36.056,162.895 37.037 C 162.776 38.019,162.984 38.255,164.092 38.394 C 164.545 38.451,165.104 38.538,165.333 38.588 C 167.214 38.996,167.730 38.856,167.882 37.901 C 167.924 37.635,168.077 37.135,168.221 36.792 C 168.365 36.448,168.438 36.167,168.382 36.167 C 168.327 36.167,168.394 36.035,168.532 35.875 C 168.670 35.715,168.830 35.451,168.887 35.289 C 169.331 34.037,174.611 34.092,175.858 35.361 C 176.101 35.609,176.258 35.853,176.206 35.905 C 176.154 35.957,176.199 36.000,176.306 36.000 C 176.413 36.000,176.491 36.056,176.480 36.125 C 176.469 36.194,176.475 36.287,176.493 36.333 C 176.652 36.742,176.711 37.484,176.785 40.042 L 176.871 43.000 174.477 43.018 C 171.012 43.045,169.801 43.148,168.000 43.566 C 167.205 43.751,166.000 44.233,166.000 44.366 C 166.000 44.440,165.887 44.500,165.750 44.500 C 165.612 44.500,165.350 44.650,165.167 44.833 C 164.983 45.017,164.781 45.167,164.717 45.167 C 164.507 45.167,163.667 46.058,163.667 46.281 C 163.667 46.402,163.592 46.500,163.500 46.500 C 163.408 46.500,163.333 46.612,163.333 46.750 C 163.333 46.887,163.267 47.000,163.187 47.000 C 163.033 47.000,162.590 47.939,162.691 48.051 C 162.723 48.086,162.647 48.239,162.521 48.391 C 162.395 48.543,162.348 48.667,162.417 48.667 C 162.485 48.667,162.460 48.764,162.361 48.883 C 161.095 50.409,162.030 59.393,163.646 61.223 C 164.389 62.065,165.118 62.690,165.457 62.775 C 165.664 62.827,165.833 62.926,165.833 62.996 C 165.833 64.069,172.745 63.987,175.206 62.885 C 175.732 62.649,176.247 62.354,176.351 62.228 C 176.679 61.833,176.833 61.977,176.833 62.677 C 176.833 63.085,176.899 63.312,177.000 63.250 C 177.092 63.193,177.167 63.208,177.167 63.282 C 177.166 63.430,181.212 63.416,181.602 63.266 C 181.847 63.172,181.881 36.625,181.637 35.750 C 181.586 35.567,181.490 35.117,181.424 34.751 C 181.357 34.385,181.256 34.010,181.198 33.918 C 181.140 33.826,181.078 33.655,181.061 33.539 C 180.988 33.059,180.129 31.831,179.544 31.372 C 178.843 30.821,177.833 30.267,177.833 30.433 C 177.833 30.492,177.737 30.461,177.620 30.364 C 177.404 30.184,177.024 30.081,175.667 29.834 C 174.744 29.666,170.495 29.672,169.583 29.842 M213.417 29.842 C 212.118 30.085,211.758 30.189,211.521 30.385 C 211.390 30.494,211.275 30.554,211.266 30.517 C 211.232 30.376,210.500 30.698,210.500 30.854 C 210.500 30.945,210.424 30.973,210.332 30.916 C 210.240 30.859,210.119 30.929,210.064 31.073 C 210.009 31.216,209.887 31.333,209.794 31.333 C 209.473 31.333,207.873 33.246,207.958 33.528 C 207.981 33.604,207.921 33.667,207.823 33.667 C 207.726 33.667,207.693 33.742,207.750 33.833 C 207.807 33.925,207.787 34.000,207.707 34.000 C 207.510 34.000,206.848 36.056,206.729 37.037 C 206.609 38.019,206.817 38.255,207.925 38.394 C 208.379 38.451,208.938 38.538,209.167 38.588 C 211.047 38.996,211.564 38.856,211.715 37.901 C 211.758 37.635,211.910 37.135,212.054 36.792 C 212.198 36.448,212.271 36.167,212.216 36.167 C 212.160 36.167,212.228 36.035,212.366 35.875 C 212.503 35.715,212.663 35.451,212.720 35.289 C 213.165 34.037,218.445 34.092,219.692 35.361 C 219.935 35.609,220.091 35.853,220.039 35.905 C 219.987 35.957,220.032 36.000,220.139 36.000 C 220.246 36.000,220.324 36.056,220.314 36.125 C 220.303 36.194,220.308 36.287,220.326 36.333 C 220.486 36.742,220.544 37.484,220.618 40.042 L 220.704 43.000 218.310 43.018 C 214.845 43.045,213.634 43.148,211.833 43.566 C 211.038 43.751,209.833 44.233,209.833 44.366 C 209.833 44.440,209.721 44.500,209.583 44.500 C 209.446 44.500,209.183 44.650,209.000 44.833 C 208.817 45.017,208.615 45.167,208.551 45.167 C 208.340 45.167,207.500 46.058,207.500 46.281 C 207.500 46.402,207.425 46.500,207.333 46.500 C 207.242 46.500,207.167 46.612,207.167 46.750 C 207.167 46.887,207.101 47.000,207.020 47.000 C 206.895 47.000,206.466 47.831,206.398 48.208 C 206.385 48.277,206.356 48.371,206.333 48.417 C 206.310 48.462,206.273 48.575,206.250 48.667 C 206.227 48.758,206.193 48.852,206.175 48.875 C 205.587 49.604,205.560 56.051,206.136 58.195 C 206.493 59.522,207.013 60.695,207.479 61.223 C 208.223 62.065,208.952 62.690,209.290 62.775 C 209.497 62.827,209.667 62.926,209.667 62.996 C 209.667 64.069,216.579 63.987,219.039 62.885 C 219.565 62.649,220.080 62.354,220.185 62.228 C 220.512 61.833,220.667 61.977,220.667 62.677 C 220.667 63.085,220.733 63.312,220.833 63.250 C 220.925 63.193,221.000 63.208,221.000 63.282 C 221.000 63.430,225.045 63.416,225.435 63.266 C 225.681 63.172,225.715 36.625,225.470 35.750 C 225.419 35.567,225.323 35.117,225.257 34.751 C 225.191 34.385,225.089 34.010,225.031 33.918 C 224.973 33.826,224.912 33.655,224.894 33.539 C 224.821 33.059,223.962 31.831,223.377 31.372 C 222.676 30.821,221.667 30.267,221.667 30.433 C 221.667 30.492,221.571 30.461,221.453 30.364 C 221.237 30.184,220.857 30.081,219.500 29.834 C 218.578 29.666,214.329 29.672,213.417 29.842 M147.167 34.558 C 147.304 34.594,147.660 34.681,147.958 34.750 C 148.256 34.819,148.500 34.945,148.500 35.031 C 148.500 35.116,148.575 35.140,148.667 35.083 C 148.758 35.027,148.833 35.060,148.833 35.157 C 148.833 35.254,148.933 35.333,149.054 35.333 C 149.516 35.333,150.372 36.757,150.796 38.229 C 150.993 38.912,151.026 53.501,150.834 54.652 C 150.605 56.021,150.608 56.009,150.373 56.436 C 150.266 56.631,150.226 56.837,150.284 56.895 C 150.342 56.953,150.301 57.000,150.194 57.000 C 150.088 57.000,150.000 57.069,150.000 57.154 C 150.000 57.532,148.628 58.591,147.917 58.762 C 146.586 59.082,146.063 59.138,145.001 59.076 C 143.875 59.010,143.157 58.919,143.042 58.825 C 143.019 58.807,142.944 58.776,142.875 58.756 C 142.434 58.632,142.040 58.393,141.750 58.076 C 141.173 57.442,140.833 57.000,140.924 57.000 C 140.972 57.000,140.929 56.845,140.828 56.656 C 140.459 55.968,140.434 55.449,140.376 47.327 C 140.317 39.228,140.353 38.431,140.849 36.678 C 140.953 36.312,142.167 34.858,142.167 35.101 C 142.167 35.165,142.317 35.083,142.500 34.917 C 142.683 34.751,142.833 34.656,142.833 34.707 C 142.833 34.757,143.190 34.702,143.625 34.584 C 144.331 34.392,146.485 34.376,147.167 34.558 M288.909 45.583 C 288.909 49.067,288.931 50.515,288.958 48.803 C 288.985 47.090,288.985 44.240,288.958 42.469 C 288.931 40.699,288.909 42.100,288.909 45.583 M175.027 47.833 L 176.846 47.833 176.825 50.875 C 176.787 56.501,176.217 57.860,173.500 58.803 C 172.030 59.313,167.667 58.644,167.667 57.909 C 167.667 57.776,167.592 57.667,167.500 57.667 C 167.408 57.667,167.349 57.610,167.367 57.542 C 167.386 57.473,167.293 57.117,167.159 56.750 C 166.828 55.838,166.825 51.651,167.154 50.542 C 167.161 50.519,167.172 50.444,167.179 50.375 C 167.185 50.306,167.309 50.119,167.454 49.958 C 167.600 49.798,167.667 49.667,167.603 49.667 C 167.540 49.667,167.772 49.423,168.119 49.125 C 168.466 48.828,168.805 48.509,168.872 48.417 C 168.940 48.325,168.996 48.309,168.997 48.381 C 168.999 48.453,169.169 48.419,169.375 48.306 C 169.581 48.192,169.900 48.073,170.083 48.042 C 171.548 47.786,172.319 47.706,172.729 47.765 C 172.993 47.802,174.027 47.833,175.027 47.833 M218.861 47.833 L 220.680 47.833 220.659 50.875 C 220.620 56.501,220.050 57.860,217.333 58.803 C 215.863 59.313,211.500 58.644,211.500 57.909 C 211.500 57.776,211.425 57.667,211.333 57.667 C 211.242 57.667,211.182 57.610,211.201 57.542 C 211.220 57.473,211.126 57.117,210.993 56.750 C 210.661 55.838,210.658 51.651,210.988 50.542 C 210.994 50.519,211.005 50.444,211.012 50.375 C 211.018 50.306,211.143 50.119,211.288 49.958 C 211.433 49.798,211.500 49.667,211.437 49.667 C 211.373 49.667,211.606 49.423,211.953 49.125 C 212.299 48.828,212.638 48.509,212.706 48.417 C 212.773 48.325,212.829 48.309,212.831 48.381 C 212.832 48.453,213.002 48.419,213.208 48.306 C 213.415 48.192,213.733 48.073,213.917 48.042 C 215.382 47.786,216.152 47.706,216.563 47.765 C 216.826 47.802,217.860 47.833,218.861 47.833 M314.714 87.083 C 314.716 87.542,314.748 87.709,314.786 87.456 C 314.825 87.203,314.824 86.828,314.784 86.623 C 314.744 86.418,314.713 86.625,314.714 87.083 M314.734 92.917 C 314.734 94.383,314.760 94.961,314.791 94.200 C 314.822 93.440,314.822 92.240,314.790 91.534 C 314.759 90.828,314.734 91.450,314.734 92.917 " stroke="none" fill="#4c4c4c" fill-rule="evenodd"></path></g></svg>